/* XPM */
static char * okcash32_xpm[] = {
"32 32 243 2",
"  	c None",
". 	c #0165A4",
"+ 	c #0168A6",
"@ 	c #0064A4",
"# 	c #005D9F",
"$ 	c #00589C",
"% 	c #0065A4",
"& 	c #0167A5",
"* 	c #0067A5",
"= 	c #00549A",
"- 	c #004792",
"; 	c #004F97",
"> 	c #0A5EA0",
", 	c #1D69A6",
"' 	c #0A5DA0",
") 	c #004E97",
"! 	c #004692",
"~ 	c #006AA7",
"{ 	c #005299",
"] 	c #3272AC",
"^ 	c #85A7CB",
"/ 	c #C2D0E3",
"( 	c #E8EDF4",
"_ 	c #F9F9FB",
": 	c #E7ECF4",
"< 	c #C2CFE3",
"[ 	c #0065A5",
"} 	c #004691",
"| 	c #2D65A5",
"1 	c #ABBBD7",
"2 	c #FFFFFF",
"3 	c #ACBCD7",
"4 	c #2E66A5",
"5 	c #0063A3",
"6 	c #00418F",
"7 	c #6A8CBB",
"8 	c #FFFBFC",
"9 	c #FFFCFD",
"0 	c #6B8DBB",
"a 	c #00418E",
"b 	c #84A0C6",
"c 	c #85A0C7",
"d 	c #016AA7",
"e 	c #004591",
"f 	c #6992BF",
"g 	c #6992BE",
"h 	c #005198",
"i 	c #2263A3",
"j 	c #B0BED9",
"k 	c #B8C8DF",
"l 	c #E9EBF3",
"m 	c #2465A4",
"n 	c #C8D5E6",
"o 	c #3B75AD",
"p 	c #003A8A",
"q 	c #004E96",
"r 	c #0660A1",
"s 	c #3F78B0",
"t 	c #799DC5",
"u 	c #AFC3DC",
"v 	c #E4E6F0",
"w 	c #B9CAE0",
"x 	c #004491",
"y 	c #00539A",
"z 	c #2B75AD",
"A 	c #B6C8DE",
"B 	c #003B8C",
"C 	c #006CA8",
"D 	c #00559B",
"E 	c #004390",
"F 	c #003588",
"G 	c #003488",
"H 	c #004A94",
"I 	c #0C5B9E",
"J 	c #507BB1",
"K 	c #D9E1ED",
"L 	c #E2E9F2",
"M 	c #2D76AE",
"N 	c #005399",
"O 	c #92B2D1",
"P 	c #347AB0",
"Q 	c #729BC4",
"R 	c #B0C2DB",
"S 	c #6A96C1",
"T 	c #2C75AF",
"U 	c #0363A3",
"V 	c #0060A1",
"W 	c #002D82",
"X 	c #6C99C2",
"Y 	c #DAE3EE",
"Z 	c #044692",
"` 	c #346AA7",
" .	c #7FA6CA",
"..	c #91B1D1",
"+.	c #004490",
"@.	c #E9EDF5",
"#.	c #EDEFF6",
"$.	c #004994",
"%.	c #005C9E",
"&.	c #0B579C",
"*.	c #FFFAFC",
"=.	c #3B7AB1",
"-.	c #A2BDD8",
";.	c #79A5C9",
">.	c #002F85",
",.	c #5083B5",
"'.	c #CCD5E6",
").	c #7590BD",
"!.	c #A3C1DA",
"~.	c #D4E1ED",
"{.	c #BDCCE1",
"].	c #04549A",
"^.	c #0064A3",
"/.	c #085FA0",
"(.	c #7DA2C9",
"_.	c #004893",
":.	c #6F9BC4",
"<.	c #E5EAF3",
"[.	c #0D5B9E",
"}.	c #1D6EA9",
"|.	c #D1D6E7",
"1.	c #1261A2",
"2.	c #005B9D",
"3.	c #005098",
"4.	c #FFFEFF",
"5.	c #839BC4",
"6.	c #003C8C",
"7.	c #00247E",
"8.	c #3064A3",
"9.	c #C3D1E4",
"0.	c #2070AB",
"a.	c #005C9F",
"b.	c #3277AF",
"c.	c #E2E5F0",
"d.	c #1667A5",
"e.	c #005A9E",
"f.	c #035097",
"g.	c #EAEAF2",
"h.	c #6E9AC3",
"i.	c #90B2D1",
"j.	c #A9C0DA",
"k.	c #7DA6CB",
"l.	c #E3E3EF",
"m.	c #396AA7",
"n.	c #085C9F",
"o.	c #7093BF",
"p.	c #E9ECF4",
"q.	c #1C68A6",
"r.	c #4986B8",
"s.	c #9CB6D4",
"t.	c #00408E",
"u.	c #0266A4",
"v.	c #4E88B9",
"w.	c #8AA6CA",
"x.	c #D3DDEB",
"y.	c #DCE2EE",
"z.	c #0D5DA0",
"A.	c #02549A",
"B.	c #D0D6E6",
"C.	c #387FB4",
"D.	c #00599D",
"E.	c #005B9E",
"F.	c #3E7DB2",
"G.	c #015A9E",
"H.	c #12599D",
"I.	c #C7CDE2",
"J.	c #F9F8FB",
"K.	c #1A6BA8",
"L.	c #D8DFEC",
"M.	c #4D81B4",
"N.	c #003789",
"O.	c #00398B",
"P.	c #045EA0",
"Q.	c #5992BE",
"R.	c #C0CFE3",
"S.	c #004892",
"T.	c #0F67A5",
"U.	c #0A5D9F",
"V.	c #004D96",
"W.	c #0560A1",
"X.	c #4374AD",
"Y.	c #DBE4EF",
"Z.	c #E9EEF4",
"`.	c #075EA0",
" +	c #004B95",
".+	c #CAD1E4",
"++	c #8FADCE",
"@+	c #5688B8",
"#+	c #206CA9",
"$+	c #D4DCEA",
"%+	c #6098C2",
"&+	c #94B0D1",
"*+	c #FDFBFD",
"=+	c #BDCAE0",
"-+	c #7DA2C8",
";+	c #0560A0",
">+	c #A2BBD7",
",+	c #C7D5E6",
"'+	c #8AACCE",
")+	c #FAF5F9",
"!+	c #C9D5E6",
"~+	c #8FAED0",
"{+	c #6894C0",
"]+	c #BBCCE1",
"^+	c #D4D6E7",
"/+	c #003085",
"(+	c #F2F3F8",
"_+	c #F3F2F8",
":+	c #054F97",
"<+	c #00579B",
"[+	c #105FA0",
"}+	c #EDF0F6",
"|+	c #8CAECF",
"1+	c #DAE0ED",
"2+	c #8EA9CC",
"3+	c #4674AD",
"4+	c #78A3C9",
"5+	c #FDFDFE",
"6+	c #4780B4",
"7+	c #719BC4",
"8+	c #2D76AF",
"9+	c #B8CBDF",
"0+	c #F3F3F8",
"a+	c #2B69A6",
"b+	c #004592",
"c+	c #003D8C",
"d+	c #BACBE0",
"e+	c #2466A4",
"f+	c #FAFAFC",
"g+	c #C8D1E5",
"h+	c #ABC3DC",
"i+	c #6991BE",
"j+	c #6A92BF",
"k+	c #849FC7",
"l+	c #84A0C7",
"m+	c #FFFBFD",
"n+	c #6B8CBB",
"o+	c #2E66A4",
"p+	c #ABBCD7",
"q+	c #84A7CB",
"r+	c #C1CFE2",
"s+	c #FAF9FB",
"t+	c #1E69A6",
"                              . .                               ",
"                      . . . . . . . . . .                       ",
"                  . . . + @ # $ $ # % + . . .                   ",
"              . . & * = - ; > , , ' ) ! = * & . .               ",
"            . . ~ { - ] ^ / ( _ _ : < ^ ] - { ~ . .             ",
"          . & [ } | 1 2 2 2 2 2 2 2 2 2 2 3 4 } % & .           ",
"        . & 5 6 7 8 2 2 2 2 2 2 2 2 2 2 2 2 9 0 a 5 & .         ",
"      . . % 6 b 2 2 2 2 2 2 2 2 2 2 2 2 2 2 2 2 c 6 % . .       ",
"      . d e f 2 2 2 2 2 2 2 2 2 2 2 2 2 2 2 2 2 2 g e d .       ",
"    . & h i 2 2 j k l 2 2 2 2 2 2 2 2 2 2 2 2 2 2 2 m h & .     ",
"    . * e n 2 o p q r s t u v 2 2 2 2 2 2 2 2 2 2 2 w x * .     ",
"  . . y z 2 A B C D E F G H I J K 2 L 2 2 2 2 2 2 2 2 M N . .   ",
"  . + e O 2 P h h Q R S T U V W X Y Z `  .2 2 2 2 2 2 ..+.+ .   ",
"  . @ ) @.#.$.%.&.*.2 2 2 =.D - -.;.- >.,.2 2 '.).!.~.{.].^..   ",
"  . # /.2 (.- _.:.2 2 2 <.[.$ }.|.1.2.3.4.2 5.) 6.7.8.9.0.a..   ",
". . $ b.c.d.e.f.g.2 2 2 h.e - i.j.E ; k.l.m.E e.n.o.p.2 q.$ . . ",
". . $ r.s.t.@ u.v.w.x.y.z.e.A.B.C.D.E.F.G.h @ H.I.2 2 J.q.$ . . ",
"  . a.K.L.M.- - N.O.= P.^.q Q.R.S.% T.U.e V.% W.X.Y.2 Z.`.# .   ",
"  . %  +Y 2 .+++@+#+3.a E t.$+%+h x &+*+=+-+;+* p >+2 ,+; % .   ",
"  . + e '+2 2 2 2 )+!+~+{+]+^+/+6 h (+2 2 _+:+<+[+}+2 |+e + .   ",
"  . . y M 2 2 2 2 2 2 2 2 2 1+2+3+4+2 2 5+6+_.- 7+2 2 8+N . .   ",
"    . * x 9+2 2 2 2 2 2 2 2 2 2 2 2 2 2 0+a+b+c+Y.2 d+e * .     ",
"    . & h e+2 2 2 2 2 2 2 2 2 2 2 2 2 2 4.f+g+h+2 2 m h & .     ",
"      . d e i+2 2 2 2 2 2 2 2 2 2 2 2 2 2 2 2 2 2 j+e d .       ",
"      . . % 6 k+2 2 2 2 2 2 2 2 2 2 2 2 2 2 2 2 l+6 % . .       ",
"        . & 5 a 0 9 2 2 2 2 2 2 2 2 2 2 2 2 m+n+a 5 & .         ",
"          . & % } o+p+2 2 2 2 2 2 2 2 2 2 1 | ! % & .           ",
"            . . ~ { - ] q+r+: s+s+( / ^ ] - { ~ . .             ",
"              . . & * = - q ' , t+> ; - = * & . .               ",
"                  . . . + % # $ $ # @ + . . .                   ",
"                      . . . . . . . . . .                       ",
"                              . .                               "};
