<svg width="68" height="54" viewBox="0 0 68 54" fill="none" xmlns="http://www.w3.org/2000/svg">
<g filter="url(#filter0_d_29_256)">
<path d="M26.28 43.585C24.15 43.585 22.1475 43.165 20.2725 42.325C18.3975 41.47 16.7475 40.2925 15.3225 38.7925C13.9125 37.2925 12.8025 35.56 11.9925 33.595C11.1975 31.615 10.8 29.5 10.8 27.25C10.8 24.985 11.1975 22.87 11.9925 20.905C12.8025 18.925 13.9125 17.1925 15.3225 15.7075C16.7475 14.2075 18.3975 13.0375 20.2725 12.1975C22.1475 11.3425 24.15 10.915 26.28 10.915C28.83 10.915 31.1775 11.5075 33.3225 12.6925C35.4675 13.8625 37.245 15.43 38.655 17.395L33.75 20.0275C32.865 18.9325 31.7625 18.055 30.4425 17.395C29.1375 16.735 27.75 16.405 26.28 16.405C24.9 16.405 23.6025 16.69 22.3875 17.26C21.1725 17.815 20.1075 18.595 19.1925 19.6C18.2775 20.59 17.565 21.745 17.055 23.065C16.545 24.37 16.29 25.765 16.29 27.25C16.29 28.75 16.545 30.1525 17.055 31.4575C17.58 32.7625 18.3 33.9175 19.215 34.9225C20.13 35.9125 21.1875 36.6925 22.3875 37.2625C23.6025 37.8175 24.9 38.095 26.28 38.095C27.78 38.095 29.175 37.765 30.465 37.105C31.77 36.43 32.865 35.545 33.75 34.45L38.655 37.105C37.245 39.055 35.4675 40.6225 33.3225 41.8075C31.1775 42.9925 28.83 43.585 26.28 43.585ZM47.0957 43.585C45.9407 43.585 44.8082 43.39 43.6982 43C42.6032 42.61 41.6057 42.0325 40.7057 41.2675L44.2157 37.0375C44.5457 37.3075 44.9507 37.555 45.4307 37.78C45.9107 37.99 46.4657 38.095 47.0957 38.095C47.9207 38.095 48.6707 37.885 49.3457 37.465C50.0207 37.03 50.5607 36.4675 50.9657 35.7775C51.3857 35.0725 51.5957 34.3075 51.5957 33.4825V11.5H57.0857V33.4825C57.0857 35.3275 56.6357 37.015 55.7357 38.545C54.8357 40.06 53.6282 41.2825 52.1132 42.2125C50.5982 43.1275 48.9257 43.585 47.0957 43.585Z" fill="white"/>
</g>
<defs>
<filter id="filter0_d_29_256" x="0.800049" y="0.914993" width="66.2856" height="52.67" filterUnits="userSpaceOnUse" color-interpolation-filters="sRGB">
<feFlood flood-opacity="0" result="BackgroundImageFix"/>
<feColorMatrix in="SourceAlpha" type="matrix" values="0 0 0 0 0 0 0 0 0 0 0 0 0 0 0 0 0 0 127 0" result="hardAlpha"/>
<feOffset/>
<feGaussianBlur stdDeviation="5"/>
<feComposite in2="hardAlpha" operator="out"/>
<feColorMatrix type="matrix" values="0 0 0 0 0 0 0 0 0 0 0 0 0 0 0 0 0 0 0.25 0"/>
<feBlend mode="normal" in2="BackgroundImageFix" result="effect1_dropShadow_29_256"/>
<feBlend mode="normal" in="SourceGraphic" in2="effect1_dropShadow_29_256" result="shape"/>
</filter>
</defs>
</svg>
